<svg width="80" height="32" viewBox="0 0 80 32" fill="none" xmlns="http://www.w3.org/2000/svg">
<path fill-rule="evenodd" clip-rule="evenodd" d="M77.0813 5.14942C77.058 5.10984 77.0343 5.07045 77.0103 5.03125C76.0177 3.40625 74.6279 2.16146 72.8411 1.29687C71.0542 0.432291 68.9696 0 66.5872 0H52.7314V5.14942H77.0813ZM36.2306 5.14942V0H27.5158V5.14942H36.2306ZM27.5158 7.35632H36.2306V12.5057H27.5158V7.35632ZM23.3857 5.14942V0H14.7964V5.14942H23.3857ZM14.7964 7.35632H23.3857V12.5057H14.7964V7.35632ZM14.7964 19.8621V14.7126H23.3857V19.8621H14.7964ZM8.71489 21.7011H0.000159938C-0.0102894 24.1672 0.491278 25.9895 1.50486 27.536C2.51845 29.0721 3.87686 30.2006 5.5801 30.9216C7.28334 31.6322 9.16421 31.9875 11.2227 31.9875C13.5947 31.9875 15.6898 31.5486 17.508 30.6708C19.3366 29.7826 20.7682 28.5496 21.8027 26.9718C22.8063 25.4463 23.3328 23.6894 23.3821 21.7011H14.7899C14.7605 22.4193 14.6425 23.032 14.4359 23.5392C14.206 24.093 13.8664 24.511 13.4171 24.7931C12.9782 25.0752 12.4348 25.2163 11.787 25.2163C11.1496 25.2163 10.6062 25.0805 10.1569 24.8088C9.71803 24.5266 9.3732 24.1087 9.12242 23.5549C8.88208 23.001 8.74624 22.5057 8.71489 21.7011ZM27.5158 21.7011V32H49.2086V24.9781H36.2306V21.7011H27.5158ZM52.7314 21.7011V32H61.4461V21.7011H52.7314ZM64.6028 21.7011L70.0981 32H79.5652L73.938 21.7011H64.6028ZM73.4566 19.8621H52.7314V14.7126H77.9125C77.6708 15.4181 77.3544 16.0712 76.9633 16.6719C76.0964 18.0172 74.9275 19.0806 73.4566 19.8621ZM78.0302 7.35632C78.343 8.42747 78.4994 9.60036 78.4994 10.875C78.4994 11.4405 78.4682 11.984 78.4059 12.5057H69.1248C69.3139 12.044 69.4085 11.5004 69.4085 10.875C69.4085 9.95833 69.2099 9.21354 68.8129 8.64062C68.4262 8.05729 67.8672 7.63021 67.1357 7.35937C67.1331 7.35835 67.1305 7.35734 67.1279 7.35632H78.0302ZM61.4461 7.35632H52.7314V12.5057H61.4461V7.35632ZM36.2306 14.7126V19.8621H27.5158V14.7126H36.2306Z" fill="white"/>
</svg>
